#!OML:ASF X:\für Bonn\!DataBase\2005_08_12_Daniel\c3d\Daniel.ASF
:FULLY-SPECIFIED
:DEGREES
182
root 6.0835 16.3025 -0.478468 163.934 -106.941 -164.787
lowerback 9.07562 -10.8164 -6.17669
upperback 3.52249 -15.037 -2.62473
thorax -0.433241 -7.59233 1.868
lowerneck 14.596 8.87139 0.0772955
upperneck 2.85364 11.3686 -2.90592
head -1.3506 5.61884 -1.54475
rclavicle 6.08281e-014 -2.54444e-014
rhumerus -46.5673 -7.02818 -82.627
rradius 36.883
rwrist 9.07316
rhand -17.374 21.5498
rfingers 7.12502
rthumb 8.87447 -8.24354
lclavicle 6.08281e-014 -2.54444e-014
lhumerus 2.52894 -8.93741 71.3395
lradius 119.633
lwrist 12.7753
lhand -21.9869 -23.5394
lfingers 7.12502
lthumb 4.42142 6.39449
rfemur -37.7808 -6.86145 17.3328
rtibia 59.7308
rfoot -23.1975 -3.22207
rtoes -0.84953
lfemur 12.4791 -5.60585 -20.5039
ltibia 42.749
lfoot -24.5461 3.46774
ltoes -24.1818
183
root 6.12901 16.2667 -0.469509 163.542 -106.949 -163.979
lowerback 8.92811 -10.9308 -6.5749
upperback 3.37201 -15.2132 -2.59018
thorax -0.387092 -7.68009 2.08344
lowerneck 14.2799 8.95026 0.349048
upperneck 2.80034 11.5295 -3.03954
head -1.2872 5.70869 -1.62105
rclavicle 1.00784e-013 -5.24792e-014
rhumerus -46.1073 -7.42158 -82.7512
rradius 37.1156
rwrist 10.2244
rhand -17.7066 22.3241
rfingers 7.12502
rthumb 8.55349 -7.48266
lclavicle 1.00784e-013 -5.24792e-014
lhumerus 2.58743 -8.92573 71.5631
lradius 119.4
lwrist 12.6908
lhand -22.1053 -23.265
lfingers 7.12502
lthumb 4.30704 6.67117
rfemur -38.8707 -6.76136 17.0799
rtibia 60.4556
rfoot -23.1618 -3.35585
rtoes -1.24527
lfemur 12.9964 -6.20472 -21.2064
ltibia 41.5245
lfoot -26.2843 3.94144
ltoes -24.4387
184
root 6.17067 16.2304 -0.461299 163.163 -106.933 -163.135
lowerback 8.69658 -11.0434 -6.97085
upperback 3.19772 -15.3798 -2.55299
thorax -0.318945 -7.76279 2.28266
lowerneck 14.0303 9.04186 0.601731
upperneck 2.73764 11.7001 -3.15533
head -1.23965 5.80222 -1.69287
rclavicle 9.06458e-014 3.18055e-015
rhumerus -45.7255 -7.77786 -82.8608
rradius 37.3408
rwrist 11.5095
rhand -18.1259 23.1758
rfingers 7.12502
rthumb 8.14884 -6.64707
lclavicle 9.06458e-014 3.18055e-015
lhumerus 2.53022 -8.90253 71.7267
lradius 119.138
lwrist 12.5702
lhand -22.2862 -23.0421
lfingers 7.12502
lthumb 4.13244 6.89752
rfemur -40.0084 -6.66643 16.8388
rtibia 61.1871
rfoot -23.1282 -3.46296
rtoes -1.63245
lfemur 13.4073 -6.80921 -21.9157
ltibia 40.3917
lfoot -27.8907 4.45178
ltoes -24.6431
185
root 6.20979 16.1935 -0.454124 162.824 -106.915 -162.329
lowerback 8.41998 -11.1566 -7.3605
upperback 3.04168 -15.5406 -2.51061
thorax -0.205874 -7.84468 2.46859
lowerneck 13.8514 9.13949 0.822598
upperneck 2.57132 11.8719 -3.26721
head -1.23992 5.89757 -1.76666
rclavicle -1.04958e-013 -2.54444e-014
rhumerus -45.293 -8.13271 -82.979
rradius 37.4897
rwrist 12.843
rhand -18.6662 24.0849
rfingers 7.12502
rthumb 7.62735 -5.75754
lclavicle -1.04958e-013 -2.54444e-014
lhumerus 2.47859 -8.81051 71.8337
lradius 118.814
lwrist 12.5104
lhand -22.4533 -22.849
lfingers 7.12502
lthumb 3.971 7.09372
rfemur -41.1446 -6.60442 16.6235
rtibia 61.9253
rfoot -23.0881 -3.55926
rtoes -2.02443
lfemur 13.7588 -7.44778 -22.6117
ltibia 39.3416
lfoot -29.3649 4.97525
ltoes -24.7281
186
root 6.24564 16.1557 -0.446608 162.433 -106.894 -161.466
lowerback 8.11032 -11.2724 -7.75862
upperback 2.89044 -15.7008 -2.47585
thorax -0.0677907 -7.92739 2.64018
lowerneck 13.7417 9.24638 1.04109
upperneck 2.32388 12.0536 -3.38392
head -1.2778 5.99899 -1.84956
rclavicle -1.90833e-014 -1.51076e-014
rhumerus -44.858 -8.36027 -83.1705
rradius 37.6418
rwrist 13.9529
rhand -19.2839 24.9847
rfingers 7.12502
rthumb 7.03113 -4.87849
lclavicle -1.90833e-014 -1.51076e-014
lhumerus 2.38892 -8.66338 71.8855
lradius 118.501
lwrist 12.4963
lhand -22.5865 -22.6783
lfingers 7.12502
lthumb 3.8424 7.26678
rfemur -42.2871 -6.57343 16.4024
rtibia 62.6715
rfoot -23.0497 -3.62001
rtoes -2.49923
lfemur 14.0721 -8.11122 -23.3306
ltibia 38.3643
lfoot -30.7382 5.51327
ltoes -24.799
187
root 6.27684 16.1164 -0.439955 162.021 -106.852 -160.576
lowerback 7.77251 -11.3762 -8.1595
upperback 2.72763 -15.8409 -2.43772
thorax 0.0750663 -7.99996 2.80845
lowerneck 13.6543 9.34653 1.26441
upperneck 2.0543 12.2266 -3.49079
head -1.32682 6.09587 -1.93217
rclavicle -1.94809e-013 -8.74653e-015
rhumerus -44.4767 -8.5147 -83.367
rradius 37.8003
rwrist 14.9439
rhand -19.9687 25.8829
rfingers 7.12502
rthumb 6.37005 -4.00136
lclavicle -1.94809e-013 -8.74653e-015
lhumerus 2.24278 -8.4805 71.967
lradius 118.165
lwrist 12.4647
lhand -22.7221 -22.5736
lfingers 7.12502
lthumb 3.71146 7.37385
rfemur -43.43 -6.54719 16.1899
rtibia 63.426
rfoot -22.997 -3.65651
rtoes -3.05309
lfemur 14.3474 -8.75941 -24.0344
ltibia 37.4642
lfoot -32.0332 6.02735
ltoes -24.7123
188
root 6.30663 16.0759 -0.433924 161.567 -106.816 -159.693
lowerback 7.48686 -11.4846 -8.55722
upperback 2.57785 -15.9902 -2.41618
thorax 0.200566 -8.07691 2.96681
lowerneck 13.6093 9.45891 1.49724
upperneck 1.76223 12.4157 -3.59785
head -1.38891 6.20058 -2.02085
rclavicle -5.01931e-014 4.37326e-014
rhumerus -44.1157 -8.56916 -83.6381
rradius 37.9867
rwrist 15.59
rhand -20.6469 26.7112
rfingers 7.12502
rthumb 5.71526 -3.19169
lclavicle -5.01931e-014 4.37326e-014
lhumerus 2.00705 -8.2493 72.0062
lradius 117.839
lwrist 12.4459
lhand -22.8131 -22.4898
lfingers 7.12502
lthumb 3.62359 7.45912
rfemur -44.5176 -6.56683 15.9915
rtibia 64.1836
rfoot -22.9473 -3.6549
rtoes -3.71258
lfemur 14.6285 -9.36048 -24.6945
ltibia 36.6328
lfoot -33.2299 6.50546
ltoes -24.5864
189
root 6.33502 16.0337 -0.428253 161.103 -106.769 -158.843
lowerback 7.24718 -11.5788 -8.93659
upperback 2.44619 -16.1219 -2.40349
thorax 0.31242 -8.14507 3.11397
lowerneck 13.5689 9.56603 1.75621
upperneck 1.4245 12.6024 -3.70864
head -1.46462 6.3047 -2.11741
rclavicle 6.14245e-014 5.24792e-014
rhumerus -43.7946 -8.5278 -83.9546
rradius 38.2406
rwrist 15.9911
rhand -21.3723 27.456
rfingers 7.12502
rthumb 5.01484 -2.46469
lclavicle 6.14245e-014 5.24792e-014
lhumerus 1.74301 -7.99336 72.0299
lradius 117.476
lwrist 12.4175
lhand -22.8986 -22.4292
lfingers 7.12502
lthumb 3.54101 7.52116
rfemur -45.5574 -6.62049 15.8113
rtibia 64.9354
rfoot -22.8857 -3.59904
rtoes -4.32771
lfemur 14.9039 -9.91838 -25.3172
ltibia 35.879
lfoot -34.3511 6.95565
ltoes -24.2522
